<svg version="1.1" xmlns="http://www.w3.org/2000/svg" style="display: block;" viewBox="0 0 2048 1664" width="1142" height="928">

<path transform="translate(0,0)" fill="#0547dc" d="M 611.997 140.977 L 639.162 141.056 C 613.765 154.266 603.768 160.349 585.698 183.906 C 564.536 220.074 568.915 246.833 568.988 286.578 L 569.048 379.117 L 569.044 676.706 L 568.985 986.858 L 568.924 1070.84 C 568.887 1122.83 563.456 1175.68 615.552 1208.38 C 620.586 1211.54 629.787 1213.96 635.664 1213.58 L 637.52 1212.34 C 637.15 1210.1 626.596 1202.03 624.056 1199.69 C 589.181 1167.48 591.776 1128.95 591.776 1086.31 L 591.809 995.922 L 591.812 706.973 L 591.761 384.701 L 591.737 288.252 C 591.721 270.254 590.87 249.557 592.479 231.855 C 596.455 188.126 633.471 148.928 676.927 142.567 C 693.131 140.194 710.011 140.937 726.144 140.957 L 797.28 141.045 L 1047.73 141.029 L 1426.86 141.044 L 1543.79 140.997 C 1584.92 140.936 1625.9 134.908 1660.61 160.849 C 1682.47 177.258 1696.84 201.747 1700.49 228.833 C 1702.76 245.527 1702.06 267.97 1702.04 285.413 L 1702.03 365.345 C 1702.04 448.311 1703.36 535.45 1701.73 617.911 C 1688.61 610.034 1683.34 607.339 1668.41 602.66 L 1668.56 349.201 L 1668.54 277.908 C 1668.52 265.69 1669.01 243.393 1666.91 232.051 C 1664.09 217.549 1657.04 204.207 1646.65 193.703 C 1624.34 171.339 1600.68 174.387 1571.75 174.386 L 1514.74 174.426 L 1327.09 174.441 L 709.264 174.509 C 683.601 174.694 673.556 173.692 652.19 189.628 C 635.777 204.159 626.186 221.059 625.488 243.124 C 624.805 264.743 625.146 287.044 625.169 308.71 L 625.262 432.178 L 625.215 820.855 L 625.275 938.688 C 625.279 953.059 626.165 983.328 625.015 996.828 C 662.161 997.591 701.001 996.935 738.302 996.929 L 952.906 996.923 L 1587.35 996.895 C 1612.34 1011.74 1634.57 1016.31 1660.85 1000.83 C 1670.31 1013.98 1694.35 1048.24 1700.45 1061 C 1703.16 1066.67 1701.85 1123.82 1700.84 1133.13 C 1743.84 1140.03 1843.56 1164.8 1834.57 1223.19 C 1827.04 1272.09 1739.49 1278.88 1701.39 1280.78 C 1653.45 1282.98 1595.47 1281.11 1546.68 1281.18 C 1501.34 1281.25 1443.44 1282.84 1399.76 1279.67 C 1399.44 1279.67 1399.12 1279.67 1398.79 1279.66 C 1333.26 1274.98 1273.43 1249.67 1227.03 1202.86 C 1212.14 1188.78 1201.76 1170.73 1187.73 1155.93 C 1173.22 1140.62 1163.95 1133.37 1143.09 1132.44 C 1119 1118.75 1142.11 1089 1165.4 1101.2 C 1168.71 1108.99 1171.63 1106.95 1178.46 1110.54 C 1203.62 1123.76 1219.04 1148.18 1236.77 1169.32 C 1264.56 1202.28 1301.25 1226.54 1342.45 1239.21 C 1386.95 1252.76 1431.43 1251.55 1477.3 1251.42 L 1566.78 1251.23 C 1617.04 1251.37 1666.86 1252.78 1717.51 1249.6 C 1731.75 1248.7 1825.41 1238.86 1802.21 1206.62 C 1783.82 1181.05 1726.14 1167.64 1694.77 1161.73 C 1654.98 1241.75 1604.25 1229.79 1527.95 1229.88 L 1450.24 1229.87 C 1424.98 1229.77 1395.55 1229.74 1370.71 1225.04 C 1344.69 1220.23 1319.83 1210.51 1297.44 1196.4 C 1315.67 1196.67 1333.9 1196.65 1352.12 1196.35 L 1352.19 1106 C 1352.18 1090.66 1353.01 1073.93 1351.19 1058.79 C 1346.43 1019.28 1303.5 1027 1275.14 1027.1 L 1202.15 1027.21 L 963.519 1027.17 L 831.498 1027.15 C 815.991 1027.11 773.832 1026.12 761.083 1028.27 C 751.179 1033.52 742.038 1039.63 738.247 1050.85 C 735.137 1060.05 734.667 1181.63 736.389 1195.42 C 738.815 1195.71 739.807 1195.59 741.689 1197.16 C 738.303 1205.73 700.009 1231.45 691.466 1237.29 C 666.825 1236.79 612.497 1217.9 587.539 1209.73 L 512.25 1185.58 L 447.046 1164.81 C 433.556 1160.5 416.598 1155.55 403.856 1149.84 C 393.298 1145.03 383.694 1138.35 375.505 1130.13 C 337.688 1092.9 344.902 1048.65 344.305 999.335 C 358.961 989.389 370.752 985.028 387.371 980.019 C 387.047 993.279 385.317 1010.27 401.506 1014.81 C 435.121 1024.25 469.463 1031.35 503.2 1040.52 C 531.222 1048.13 524.89 1005.72 524.883 989.32 L 524.813 918.455 L 524.904 827.795 C 524.921 811.572 525.725 794.98 524.579 778.822 C 524.281 774.618 523.419 770.714 520.594 767.423 C 517.981 764.377 513.233 762.921 509.449 761.923 C 487.79 756.212 463.641 753.954 441.438 750.451 C 430.307 748.695 418.508 745.523 407.348 744.835 C 401.658 744.484 395.235 745.111 390.945 749.299 C 384.142 755.94 387.026 836.501 387.061 850.711 C 372.086 851.835 359.209 854.112 344.676 857.563 L 344.543 839.62 C 330.211 842.252 300.86 841.156 286.77 835.294 C 259.186 824.153 251.816 798.674 251.633 771.541 L 251.543 514.625 L 251.579 440.433 C 251.622 412.405 248.218 387.834 269.782 366.24 C 290.247 345.748 317.863 349.612 344.272 349.895 L 344.251 278.581 C 344.252 236.364 341.129 202.836 374.197 169.792 C 386.556 157.291 402.14 148.462 419.216 144.286 C 439.202 139.351 481.488 140.961 503.987 141.005 L 611.997 140.977 z"/>
<path transform="translate(0,0)" fill="rgb(6,45,146)" d="M 625.015 996.828 C 620.791 983.79 623.048 859.889 623.051 838.649 L 623.083 444.196 L 622.978 306.114 C 622.936 281.516 621.908 255.434 624.491 231.064 C 625.788 218.829 640.001 196.114 650.466 188.897 L 652.19 189.628 C 635.777 204.159 626.186 221.059 625.488 243.124 C 624.805 264.743 625.146 287.044 625.169 308.71 L 625.262 432.178 L 625.215 820.855 L 625.275 938.688 C 625.279 953.059 626.165 983.328 625.015 996.828 z"/>
<path transform="translate(0,0)" fill="#0547dc" d="M 1399.76 1279.67 C 1405.36 1277.86 1463.83 1278.85 1474.79 1278.83 C 1542.11 1278.71 1609.59 1278.3 1676.92 1278.57 C 1682.07 1278.59 1697.36 1279.14 1701.39 1280.78 C 1653.45 1282.98 1595.47 1281.11 1546.68 1281.18 C 1501.34 1281.25 1443.44 1282.84 1399.76 1279.67 z"/>
<path transform="translate(0,0)" fill="rgb(8,28,105)" d="M 736.389 1195.42 L 735.266 1195.98 C 732.558 1186.45 732.874 1062.18 735.824 1052.67 C 738.849 1042.91 745.741 1034 755.022 1029.4 C 757.294 1028.28 758.696 1027.39 761.083 1028.27 C 751.179 1033.52 742.038 1039.63 738.247 1050.85 C 735.137 1060.05 734.667 1181.63 736.389 1195.42 z"/>
<path transform="translate(0,0)" fill="#0547dc" d="M 611.997 140.977 L 639.162 141.056 C 613.765 154.266 603.768 160.349 585.698 183.906 C 584.759 172.537 618.96 151.993 621.041 143.809 L 619.741 142.439 C 616.388 142.538 615.276 141.977 611.997 140.977 z"/>
<path transform="translate(0,0)" fill="#0547dc" d="M 286.77 835.294 C 293.637 833.612 301.842 838.763 306.698 838.294 C 319.151 837.091 330.262 837.93 342.624 838.225 L 344.543 839.62 C 330.211 842.252 300.86 841.156 286.77 835.294 z"/>
<path transform="translate(0,0)" fill="rgb(255,255,255)" d="M 1372.61 1027.09 L 1667.87 1027.13 C 1668.51 1052.71 1670.99 1122.11 1665.32 1143.07 C 1662.02 1155.28 1655.94 1164.95 1647.87 1174.52 C 1619.95 1202.21 1592.88 1195.45 1557.1 1196.23 C 1550.6 1196.37 1544.03 1196.23 1537.51 1196.24 L 1382.78 1196.24 L 1382.86 1105.23 C 1382.86 1076.94 1386.25 1052.8 1372.61 1027.09 z"/>
<path transform="translate(0,0)" fill="#0547dc" d="M 1438.4 1163.76 C 1436.4 1164.58 1434.9 1165.01 1432.72 1164.69 C 1430.11 1164.31 1427.59 1162.97 1426.03 1160.81 C 1422.7 1156.22 1423.01 1069.98 1424.71 1060.97 C 1425.19 1058.38 1426.75 1056.11 1429.01 1054.75 C 1431.66 1053.11 1433.06 1053.26 1435.9 1053.83 C 1438.28 1054.88 1442 1057.01 1442.19 1059.38 C 1443.28 1073.31 1444.39 1151.53 1442.34 1160.09 C 1440.73 1161.91 1440.46 1162.39 1438.4 1163.76 z"/>
<path transform="translate(0,0)" fill="rgb(8,28,105)" d="M 1435.9 1053.83 C 1438.28 1054.88 1442 1057.01 1442.19 1059.38 C 1443.28 1073.31 1444.39 1151.53 1442.34 1160.09 C 1440.73 1161.91 1440.46 1162.39 1438.4 1163.76 C 1438.55 1163.44 1438.71 1163.12 1438.85 1162.79 C 1439.06 1162.32 1439.25 1161.85 1439.45 1161.39 C 1442.3 1154.99 1441.92 1072.65 1440.73 1060.5 C 1438.76 1057 1437.62 1056.64 1434.15 1054.6 L 1435.9 1053.83 z"/>
<path transform="translate(0,0)" fill="#0547dc" d="M 1603.03 1052.77 C 1610.03 1053.39 1614.42 1056.56 1614.59 1063.92 C 1615.28 1094.06 1615.04 1124.32 1614.79 1154.46 C 1614.75 1160.03 1612 1161.95 1608.03 1165.18 C 1601.82 1164.8 1596.53 1163.05 1596.23 1155.76 C 1594.95 1125.16 1595.89 1094.27 1595.92 1063.63 C 1595.93 1058.13 1599.22 1055.95 1603.03 1052.77 z"/>
<path transform="translate(0,0)" fill="#0547dc" d="M 1569.65 1052.88 C 1572.85 1053.6 1577.37 1054.59 1579.15 1057.69 C 1581.69 1062.11 1582.56 1151.3 1580.25 1158.56 C 1579.08 1162.22 1576.03 1163.62 1572.87 1165.38 C 1568.28 1164.44 1562.34 1162.01 1562.26 1156.33 C 1561.79 1124.63 1561.28 1092.53 1562.81 1060.88 C 1562.99 1057.07 1566.86 1054.7 1569.65 1052.88 z"/>
<path transform="translate(0,0)" fill="#0547dc" d="M 1536.05 1052.71 C 1539.61 1053.99 1542.77 1055.15 1544.73 1058.63 C 1547.09 1062.8 1547.94 1152.34 1545.82 1158.48 C 1544.47 1162.43 1541.08 1163.65 1537.63 1165.36 C 1531.85 1163.58 1527.95 1160.8 1528.01 1154.12 C 1528.26 1122.96 1527.11 1091.52 1528.6 1060.44 C 1528.77 1056.92 1533.52 1054.22 1536.05 1052.71 z"/>
<path transform="translate(0,0)" fill="#0547dc" d="M 1466.83 1053.06 C 1470.53 1053.97 1473.7 1054.54 1475.76 1058.08 C 1478.2 1062.31 1478.67 1153.1 1476.35 1159.13 C 1474.99 1162.66 1471.95 1163.9 1468.75 1165.5 C 1465.85 1164.48 1462.31 1163.3 1460.73 1160.42 C 1458.5 1156.34 1457.64 1068.78 1459.53 1060.88 C 1460.53 1056.72 1463.38 1055.2 1466.83 1053.06 z"/>
<path transform="translate(0,0)" fill="#0547dc" d="M 1500.88 1052.76 C 1515.99 1056.25 1511.34 1070.65 1511.49 1084.27 C 1511.75 1108.93 1512.19 1133.99 1511.01 1158.56 C 1510.85 1161.76 1506.21 1164.04 1503.82 1165.42 C 1497.28 1164.6 1493.67 1161.37 1493.65 1154.5 C 1493.57 1123.59 1492.89 1092.45 1493.94 1061.58 C 1494.08 1057.41 1497.79 1054.88 1500.88 1052.76 z"/>
<path transform="translate(0,0)" fill="rgb(255,255,255)" d="M 636.664 1162.94 C 621.289 1159.84 622.38 1088.66 622.957 1074.42 C 623.573 1059.24 622.019 1041.7 623.531 1026.91 L 624.59 1027.04 C 654.236 1027.05 686.976 1026.35 716.362 1027.22 C 702.117 1054.12 705.808 1073.05 705.806 1102.66 L 705.759 1196.45 C 674.09 1195.96 655.801 1190.02 636.664 1162.94 z"/>
<path transform="translate(0,0)" fill="rgb(6,45,146)" d="M 636.664 1162.94 C 621.289 1159.84 622.38 1088.66 622.957 1074.42 C 623.573 1059.24 622.019 1041.7 623.531 1026.91 L 624.59 1027.04 C 626.772 1045.36 625.051 1070.06 625.316 1089.04 C 625.74 1119.31 622.493 1134.9 636.664 1162.94 z"/>
<path transform="translate(0,0)" fill="rgb(255,255,255)" d="M 308.866 382.289 C 320.133 381.787 332.858 382.094 344.254 382.146 L 344.116 397.177 C 328.042 397.277 312.037 392.693 302.003 407.217 C 301.032 421.018 301.617 442.34 301.609 456.604 L 301.613 549.093 L 301.654 698.393 C 301.639 722.739 301.518 747.132 301.506 771.473 C 302.032 776.494 300.85 785.019 305.425 788.516 C 314.268 795.275 331.322 793.311 342.077 793.135 L 343.976 794.048 C 344.947 797.756 344.396 804.088 344.264 808.142 C 318.498 808.454 283.933 814.341 283.146 777.906 C 282.914 767.162 283.054 756.356 283.045 745.613 L 283.016 656.686 L 283.001 495.067 C 283.002 467.045 282.735 438.845 283.333 410.826 C 283.687 394.221 292.663 384.847 308.866 382.289 z"/>
<path transform="translate(0,0)" fill="rgb(255,255,255)" d="M 384.332 336.095 C 380.599 315.659 396.041 319.278 412.009 319.452 C 447.914 319.841 483.883 319.543 519.751 320.468 C 529.83 320.806 530.591 329.261 529.477 337.241 C 529.529 340.298 527.53 341.514 525.399 343.243 C 514.014 345.67 392.358 344.746 387.409 341.298 C 385.362 339.872 384.817 338.399 384.332 336.095 z"/>
<path transform="translate(0,0)" fill="rgb(6,45,146)" d="M 384.332 336.095 C 385.431 337.098 389.182 340.618 390.59 340.649 C 433.722 341.616 476.987 341.303 520.152 341.743 C 524.053 341.783 526.586 339.545 529.477 337.241 C 529.529 340.298 527.53 341.514 525.399 343.243 C 514.014 345.67 392.358 344.746 387.409 341.298 C 385.362 339.872 384.817 338.399 384.332 336.095 z"/>
<path transform="translate(0,0)" fill="rgb(255,255,255)" d="M 390.314 369.148 C 429.929 367.53 480.058 370.902 520.399 370.604 C 528.373 370.546 535.347 383.679 522.752 391.75 C 481.537 392.105 439.936 390.824 398.687 391.012 C 383.61 391.081 376.728 378.44 390.314 369.148 z"/>
<path transform="translate(0,0)" fill="rgb(255,255,255)" d="M 391.475 418.21 C 433.16 417.422 476.296 420.064 518.137 420.169 C 531.235 420.201 534.855 433.718 522.6 441.199 C 493.547 441.16 464.495 440.915 435.445 440.461 C 427.158 440.39 396.957 440.711 390.339 439.034 C 387.913 438.439 385.847 436.858 384.638 434.673 C 380.312 427.008 384.411 421.398 391.475 418.21 z"/>
<path transform="translate(0,0)" fill="rgb(255,255,255)" d="M 389.656 468.073 C 431.534 466.739 475.763 470.649 517.855 469.979 C 530.926 469.771 534.162 482.634 522.645 491.053 C 517.365 491.984 511.652 491.575 506.275 491.405 C 469.036 490.201 431.614 490.904 394.416 489.199 C 381.809 488.621 378.84 475.661 389.656 468.073 z"/>
<path transform="translate(0,0)" fill="#0547dc" d="M 706.121 297.596 C 710.368 278.921 729.275 263.447 748.189 262.682 C 764.752 262.013 780.838 262 797.389 261.994 L 875.549 261.982 L 1121.22 261.997 L 1276.87 261.971 L 1322.53 261.948 C 1345.6 261.965 1362.91 260.392 1378.48 280.977 C 1387.04 292.746 1390.66 311.874 1389.13 325.816 C 1387.14 343.893 1392.48 393.291 1387.4 408.02 C 1383.86 418.391 1383.99 423.11 1387.53 433.651 C 1389.2 439.469 1390.09 516.878 1388.35 520.442 C 1386.05 518.079 1386 518 1384.33 515.146 C 1376.8 504.727 1369.36 494.203 1361.7 483.884 C 1352.24 471.124 1344.93 457.54 1327.64 455.184 C 1320 454.119 1312.26 456.263 1306.25 461.11 C 1293.01 471.662 1288.1 497.248 1286.74 513.088 C 1283.31 552.427 1295.91 591.485 1321.69 621.399 C 1338.77 641.491 1363.52 657.14 1389.11 663.578 L 1389.02 821.625 C 1389.02 834.98 1389.15 848.492 1389.12 861.699 C 1389.07 883.46 1391.71 906.352 1374.77 923.024 C 1366.98 930.687 1357.19 936.51 1345.92 937.901 C 1326.2 939.261 1305.85 938.705 1286.02 938.706 L 1165.61 938.675 L 764.878 938.722 C 744.778 938.673 733.963 937.911 718.095 922.943 C 713.52 918.627 707.025 908.367 706.131 902.326 C 701.099 888.952 703.445 800.204 703.452 780.031 L 703.463 577.243 L 703.385 428.496 C 703.362 407.226 701.696 309.882 706.121 297.596 z"/>
<path transform="translate(0,0)" fill="#0547dc" d="M 706.131 902.326 C 701.099 888.952 703.445 800.204 703.452 780.031 L 703.463 577.243 L 703.385 428.496 C 703.362 407.226 701.696 309.882 706.121 297.596 C 706.794 315.93 705.45 341.333 705.571 360.511 L 705.679 579.884 C 705.656 590.551 707.265 602.121 706.945 612.583 C 705.493 660.081 708.262 707.555 705.933 755.052 C 705.71 759.598 707.501 765.176 707.117 769.874 C 706.38 813.774 707.599 858.485 706.131 902.326 z"/>
<path transform="translate(0,0)" fill="rgb(8,28,105)" d="M 1387.4 408.02 C 1384.97 374.167 1388.75 337.687 1386.74 303.599 C 1386.33 296.773 1379.24 287.906 1378.48 280.977 C 1387.04 292.746 1390.66 311.874 1389.13 325.816 C 1387.14 343.893 1392.48 393.291 1387.4 408.02 z"/>
<path transform="translate(0,0)" fill="rgb(8,28,105)" d="M 1384.33 515.146 C 1389.74 508.074 1385.68 449.061 1387.53 433.651 C 1389.2 439.469 1390.09 516.878 1388.35 520.442 C 1386.05 518.079 1386 518 1384.33 515.146 z"/>
<path transform="translate(0,0)" fill="#0547dc" d="M 871.168 1302.28 C 947.639 1300.82 1029.64 1302.31 1106.5 1302.31 L 1675.79 1302.24 C 1687.04 1309.44 1703.29 1329.18 1713.02 1339.8 L 1776.99 1410.17 C 1792.22 1426.96 1824.5 1460.62 1837.61 1477.61 C 1841.78 1488.15 1839.94 1504.81 1835.91 1515.36 C 1830.06 1532.18 1808.39 1550.26 1790.99 1551.41 C 1771.81 1552.69 1748.67 1551.99 1729.34 1551.99 L 1588.89 1551.99 L 1097.46 1552.01 L 1017.16 1552.02 C 1006.88 1552.02 976.105 1553.62 968.564 1548.47 C 920.026 1515.29 872.167 1480.81 824.54 1446.35 C 821.469 1444.13 816.756 1439.54 816.772 1435.69 C 815.085 1410.12 816.194 1382.07 817.014 1356.52 C 824.695 1343.67 858.624 1311 871.168 1302.28 z"/>
<path transform="translate(0,0)" fill="#0547dc" d="M 1835.91 1515.36 C 1835.46 1511.95 1836.66 1480.79 1837.61 1477.61 C 1841.78 1488.15 1839.94 1504.81 1835.91 1515.36 z"/>
<path transform="translate(0,0)" fill="rgb(255,255,255)" d="M 1432.61 1324.42 C 1460.56 1325.48 1491.21 1324.91 1519.41 1324.91 L 1668.4 1324.96 C 1714.28 1371.74 1758.42 1424.03 1803.43 1472.03 L 1684.73 1472.36 C 1691.91 1473.44 1700.96 1472.29 1710.26 1473.67 C 1707.34 1474.52 1675.96 1474.73 1670.01 1474.88 L 1671.51 1475.02 C 1659.4 1475.98 1571.03 1476.5 1566.34 1472.93 L 1483.09 1380.97 C 1466.85 1363.16 1447.58 1342.92 1432.61 1324.42 z"/>
<path transform="translate(0,0)" fill="#0547dc" d="M 1566.34 1472.93 C 1572.55 1471.79 1601.68 1472.08 1609.68 1472.23 C 1634.19 1472.7 1660.42 1471.67 1684.73 1472.36 C 1691.91 1473.44 1700.96 1472.29 1710.26 1473.67 C 1707.34 1474.52 1675.96 1474.73 1670.01 1474.88 L 1671.51 1475.02 C 1659.4 1475.98 1571.03 1476.5 1566.34 1472.93 z"/>
<path transform="translate(0,0)" fill="#0547dc" d="M 1533.4 1340.28 C 1549.57 1339.39 1570.07 1340.27 1586.6 1340 C 1596.73 1339.84 1619.26 1339.46 1628.21 1340.54 C 1634.13 1341.19 1639.9 1342.88 1645.24 1345.53 C 1664.96 1355.43 1674.5 1381.6 1648.91 1388.93 C 1620.6 1389.75 1591.96 1388.96 1563.62 1389.5 C 1559.67 1389.57 1555.18 1389.42 1551.28 1388.92 C 1546.31 1388.31 1541.46 1386.9 1536.93 1384.75 C 1516.96 1375.23 1503.6 1347.7 1533.4 1340.28 z"/>
<path transform="translate(0,0)" fill="rgb(255,255,255)" d="M 1532.51 1351.19 C 1545.56 1350.35 1562.3 1350.92 1575.63 1351.02 C 1581.15 1355.88 1597.83 1373.2 1587.15 1379.28 C 1571.21 1379.45 1546.57 1382.48 1534.38 1370.65 C 1527.35 1363.83 1524.01 1357.84 1532.51 1351.19 z"/>
<path transform="translate(0,0)" fill="#0547dc" d="M 1593.82 1403.46 C 1611.89 1403.18 1629.96 1403.11 1648.03 1403.26 C 1668.83 1403.34 1697.59 1400.54 1710.97 1419.36 C 1724.48 1438.36 1714.7 1451.19 1693.63 1452.67 L 1638.02 1452.81 C 1619.14 1452.84 1597.68 1455.13 1581.89 1442.96 C 1572.15 1435.45 1562.84 1421.28 1572.72 1410.02 C 1578.04 1403.95 1586.42 1403.91 1593.82 1403.46 z"/>
<path transform="translate(0,0)" fill="rgb(255,255,255)" d="M 1585.34 1414.11 C 1599.25 1413.56 1614.09 1413.88 1628.01 1414.1 C 1634.39 1419.37 1645.96 1430.61 1644.04 1439.61 C 1641.73 1442.42 1642.85 1441.54 1638.75 1442.49 C 1621.61 1442.75 1580.86 1446.5 1580.48 1420.26 C 1581.76 1416.58 1582.07 1416.53 1585.34 1414.11 z"/>
<path transform="translate(0,0)" fill="rgb(255,255,255)" d="M 1262.12 1325.23 L 1263.38 1323.31 C 1273.93 1320.58 1368.45 1318.81 1375.01 1323.78 C 1381.21 1330.18 1387.64 1337.4 1393.55 1344.09 C 1431.17 1386.74 1471.39 1428.26 1507.66 1472.03 C 1406.98 1474.37 1305.09 1471.36 1204.26 1472.55 C 1147.73 1473.21 1090.37 1472.98 1033.84 1472.32 C 1022.08 1460.77 993.883 1425.93 982.707 1412.32 C 959.45 1384.02 929.766 1352.92 907.855 1324.62 C 916.537 1324.79 925.22 1324.84 933.904 1324.76 C 943.291 1324.9 954.905 1325.37 964.094 1324.46 C 953.491 1332.16 951.609 1341.17 961.054 1351.54 C 986.2 1379.14 1012.11 1412.48 1038.72 1438.16 C 1044.69 1443.93 1097.97 1441.79 1110.24 1441.78 L 1231.88 1441.72 L 1369.36 1441.7 C 1390.91 1441.7 1412.46 1441.73 1434.01 1441.73 C 1444.71 1441.72 1451.46 1432.22 1444.95 1423.06 C 1438.51 1418.21 1374.01 1421.06 1360.95 1420.53 L 1360.07 1419.71 C 1353.06 1413.08 1326.78 1384.99 1324.69 1377.16 L 1325.51 1375.31 C 1336.79 1371.68 1370.61 1376.2 1383.52 1373.83 C 1386.14 1373.35 1387.3 1371.53 1388.53 1369.67 C 1389.37 1362.98 1383.75 1359.8 1377.87 1359.79 C 1348.62 1359.77 1319.13 1360.31 1289.9 1359.87 C 1282.43 1352.63 1264.7 1334.51 1262.12 1325.23 z"/>
<path transform="translate(0,0)" fill="#0547dc" d="M 1262.12 1325.23 L 1263.38 1323.31 C 1273.93 1320.58 1368.45 1318.81 1375.01 1323.78 C 1368.86 1325.37 1354.39 1325.01 1347.56 1325 L 1293.38 1324.75 C 1284.63 1324.7 1270.26 1324.16 1262.12 1325.23 z"/>
<path transform="translate(0,0)" fill="rgb(255,255,255)" d="M 873.611 1327.08 C 875.929 1326.52 878.032 1325.39 880.214 1326.85 C 885.524 1330.41 1010.88 1477.95 1019.06 1490.19 C 1018.06 1505.36 1017.17 1514.11 1013.66 1529.29 C 1007.3 1529.6 985.704 1531.24 980.717 1528.73 C 966.545 1521.61 951.533 1510.14 938.533 1500.75 C 905.315 1476.75 870.849 1453.51 838.022 1429.08 L 836.595 1428.05 C 835.611 1417.88 835.054 1370.95 837.006 1362.12 C 840.21 1358.7 844.439 1353.69 848.761 1352.31 C 850.706 1350.9 860.093 1341.29 862.35 1339.06 C 862.599 1333.81 868.504 1328.1 873.611 1327.08 z"/>
<path transform="translate(0,0)" fill="#0547dc" d="M 837.006 1362.12 C 840.21 1358.7 844.439 1353.69 848.761 1352.31 C 845.588 1355.84 841.934 1359.72 838.916 1363.31 C 838.439 1377.69 838.274 1392.07 838.423 1406.45 C 838.424 1410.54 838.576 1426.01 838.022 1429.08 L 836.595 1428.05 C 835.611 1417.88 835.054 1370.95 837.006 1362.12 z"/>
<path transform="translate(0,0)" fill="#0547dc" d="M 862.35 1339.06 C 862.599 1333.81 868.504 1328.1 873.611 1327.08 C 870.977 1331.32 866.126 1335.63 862.35 1339.06 z"/>
<path transform="translate(0,0)" fill="rgb(255,255,255)" d="M 1120.68 1374.29 C 1144.68 1373.96 1169.46 1374.3 1193.52 1374.32 C 1199.07 1379.43 1226.07 1408.87 1229.63 1414.29 C 1229.69 1418.01 1229.6 1416.93 1227.17 1420.64 C 1202.81 1421.01 1177.57 1420.75 1153.15 1420.64 C 1146.85 1414.5 1121.09 1386.13 1118.24 1379.37 C 1118.47 1375.57 1117.8 1377.26 1120.68 1374.29 z"/>
<path transform="translate(0,0)" fill="rgb(255,255,255)" d="M 1223.07 1374.24 L 1296.62 1374.14 C 1303.49 1379.93 1329.67 1407.41 1332.66 1414.62 C 1332.59 1418.45 1332.84 1417.02 1330.75 1420.52 C 1308.19 1421.47 1279.89 1420.76 1256.91 1420.55 C 1248.62 1412.18 1228.65 1389.8 1221.76 1379.46 C 1220.83 1378.06 1222.31 1375.84 1223.07 1374.24 z"/>
<path transform="translate(0,0)" fill="rgb(255,255,255)" d="M 1015.53 1374.36 C 1040.27 1374.18 1065.01 1374.15 1089.75 1374.29 C 1097.14 1381.24 1122.36 1406.62 1125.59 1414.6 C 1125.46 1418.72 1125.86 1417.13 1123.51 1420.7 C 1099.6 1420.39 1073.63 1421.37 1050.15 1420.3 C 1042.07 1412.97 1021.69 1389.9 1014.46 1379.86 C 1013.37 1378.34 1014.8 1375.79 1015.53 1374.36 z"/>
<path transform="translate(0,0)" fill="rgb(255,255,255)" d="M 1056.79 1324.84 C 1062.83 1319.45 1124.59 1319.16 1131.98 1323.01 L 1132.29 1323.72 C 1138.42 1329.26 1158.35 1349.63 1158.68 1355.21 C 1159.12 1362.85 1091.12 1359.84 1083.31 1359.61 C 1076.99 1353.07 1058.42 1332.65 1056.79 1324.84 z"/>
<path transform="translate(0,0)" fill="#0547dc" d="M 1056.79 1324.84 C 1062.83 1319.45 1124.59 1319.16 1131.98 1323.01 L 1132.29 1323.72 C 1126.29 1326.09 1068.2 1324.67 1056.79 1324.84 z"/>
<path transform="translate(0,0)" fill="rgb(255,255,255)" d="M 1169.68 1324.48 C 1191.48 1324.63 1214.09 1325.1 1235.82 1324.45 C 1242.27 1330.9 1262.8 1349.93 1260.84 1358.18 C 1257.67 1360.37 1258.73 1359.7 1254.25 1359.84 L 1186.34 1359.84 C 1185.55 1359.11 1184.78 1358.36 1184.03 1357.6 C 1180.18 1353.72 1159.62 1330.17 1159.63 1326.36 C 1162.83 1324.33 1165.78 1324.65 1169.68 1324.48 z"/>
<path transform="translate(0,0)" fill="rgb(255,255,255)" d="M 933.904 1324.76 C 952.486 1322.15 1010.48 1317.98 1027.68 1322.92 L 1028.15 1323.73 C 1032.62 1326.97 1058.38 1352.41 1056.99 1355.31 C 1053.3 1362.99 1004.29 1359.73 995.863 1359.45 C 985.039 1348.93 976.158 1335.95 965.472 1324.89 L 964.094 1324.46 C 954.905 1325.37 943.291 1324.9 933.904 1324.76 z"/>
<path transform="translate(0,0)" fill="#0547dc" d="M 933.904 1324.76 C 952.486 1322.15 1010.48 1317.98 1027.68 1322.92 L 1028.15 1323.73 C 1023.15 1325.78 974.628 1324.89 965.472 1324.89 L 964.094 1324.46 C 954.905 1325.37 943.291 1324.9 933.904 1324.76 z"/>
<path transform="translate(0,0)" fill="#0547dc" d="M 1414.72 412.102 C 1424.35 411.631 1433.63 411.706 1443.18 413.164 C 1474.27 417.881 1502.17 434.846 1520.66 460.272 C 1536.06 481.584 1544.66 508.923 1542.88 535.335 C 1542.09 550.069 1535.45 567.915 1537.71 582.576 C 1540.73 602.067 1558.65 623.315 1570.22 639.118 C 1590.83 633.886 1612.43 629.869 1633.17 625.503 C 1671.57 617.421 1693.81 641.671 1721.46 662.889 C 1739.88 677.024 1758.15 691.806 1776.98 705.273 C 1792.54 706.069 1809.66 705.416 1825.36 705.117 C 1827.69 695.165 1830.36 687.123 1841.93 685.714 C 1852.9 684.378 1863.95 684.847 1875 684.843 L 1934.12 684.895 C 1935.06 772.656 1934.13 862.156 1934.13 950.061 L 1875.46 950.235 C 1850.49 950.281 1827.78 956.445 1825.77 924.821 L 1805.15 925.044 C 1798.45 929.291 1788.61 936.923 1781.95 941.8 C 1786.63 949.497 1793.16 957.142 1798.25 964.674 C 1819.11 995.536 1850.14 1020.38 1831.43 1060.42 C 1824.87 1074.26 1813.06 1084.9 1798.61 1089.98 C 1782.24 1095.82 1768.46 1093.35 1753.29 1086.11 C 1746.46 1082.13 1738.92 1074.79 1734.54 1068.24 C 1712.4 1035.19 1691.04 1002.26 1667.34 970.297 C 1641.63 986.631 1611.73 999.545 1589.9 964.911 C 1585.28 957.589 1584.31 948.758 1583.53 940.202 C 1546.94 941.632 1528.47 920.672 1530.68 884.7 C 1526.92 884.146 1523.2 883.331 1519.56 882.259 C 1507.53 878.866 1497.37 870.795 1491.34 859.851 C 1483.56 845.479 1485.04 832.976 1489.35 818.098 C 1474.33 813.111 1463.17 804.717 1456.57 789.969 C 1451.27 777.829 1450.97 764.09 1455.73 751.729 C 1463.93 730.56 1479.47 725.5 1498.47 717.145 C 1489.3 699.311 1469.37 670.731 1454.77 656.889 C 1444.62 647.26 1421.12 645.355 1407.26 643.5 C 1348.56 635.641 1310.34 583.28 1309.23 526.041 C 1309.01 514.704 1312.51 487.511 1321.08 478.991 C 1323.08 478.27 1325.73 477.612 1327.4 479.31 C 1350.38 502.568 1366.4 537.327 1391.5 558.092 C 1395.67 561.548 1437.55 550.397 1443.41 547.712 C 1450.78 535.449 1461.46 515.897 1465.97 502.564 C 1457.38 484.931 1408.01 427.547 1408.83 417.558 C 1410.08 414.536 1411.79 413.958 1414.72 412.102 z"/>
<path transform="translate(0,0)" fill="rgb(255,255,255)" d="M 1601.83 714.116 C 1588.21 734.401 1575.84 753.706 1549.16 754.124 C 1534.43 754.354 1523.54 744.926 1532.38 730.784 C 1545.02 710.57 1554.48 688.326 1568.12 668.985 C 1578.53 659.525 1604.23 657.179 1616.63 654.034 C 1650.36 645.485 1663.96 646.798 1690.31 669.604 C 1703.83 681.307 1720.26 692.323 1734.12 704.002 C 1741.62 710.313 1758.42 723.776 1766.66 727.545 C 1771.93 726.372 1823.03 727.979 1827.32 730.143 C 1828.51 734.576 1829.56 849.24 1827.78 853.716 C 1827.12 853.132 1826.69 852.914 1826.32 852.205 L 1826.32 899.335 L 1797.01 900.17 C 1788.61 905.013 1778.15 915.202 1767.52 921.711 C 1750.11 899.943 1723.67 861.2 1707.99 837.689 C 1719.31 840.604 1754.82 853.723 1758.88 835.531 C 1762.43 819.564 1740.13 820.312 1729.5 817.623 C 1692.99 808.388 1665.98 775.311 1650.58 742.415 C 1646.11 732.919 1643.49 721.067 1638.19 712.538 C 1626.07 712.975 1613.95 713.501 1601.83 714.116 z"/>
<path transform="translate(0,0)" fill="#0547dc" d="M 1766.66 727.545 C 1771.93 726.372 1823.03 727.979 1827.32 730.143 C 1828.51 734.576 1829.56 849.24 1827.78 853.716 C 1827.12 853.132 1826.69 852.914 1826.32 852.205 C 1826.49 811.602 1826.44 770.998 1826.17 730.395 C 1810.66 730.15 1779.06 732.863 1766.66 727.545 z"/>
<path transform="translate(0,0)" fill="rgb(255,255,255)" d="M 1589.46 786.144 C 1624.01 782.188 1625.14 820.716 1600.49 830.055 C 1582.09 837.031 1555.25 855.567 1537.28 859.84 C 1519.42 860.23 1507.81 850.184 1510.92 830.366 C 1511.67 825.585 1518.23 817.877 1522.68 815.573 C 1543.92 804.567 1567.12 794.862 1589.46 786.144 z"/>
<path transform="translate(0,0)" fill="rgb(255,255,255)" d="M 1630.5 843.114 C 1652.22 842.263 1660.71 863.824 1651.64 875.42 C 1643.76 885.513 1593.41 913.234 1581.38 916.038 C 1552.07 915.71 1548.43 887.702 1561.84 877.686 C 1572.39 869.81 1618.74 847.038 1630.5 843.114 z"/>
<path transform="translate(0,0)" fill="rgb(255,255,255)" d="M 1662.58 901.972 C 1684.37 899.233 1693.3 926.648 1674.3 938.123 C 1662.22 945.422 1644.06 958.129 1630.85 962.061 C 1615.1 961.577 1603.91 949.94 1609.42 935.676 C 1614.25 923.212 1650.62 907.204 1662.58 901.972 z"/>
<path transform="translate(0,0)" fill="rgb(255,255,255)" d="M 1773.36 1007.65 C 1787.13 1004.81 1800.59 1013.69 1803.39 1027.46 C 1806.2 1041.23 1797.3 1054.67 1783.52 1057.45 C 1769.78 1060.22 1756.4 1051.35 1753.6 1037.62 C 1750.8 1023.89 1759.64 1010.48 1773.36 1007.65 z"/>
<path transform="translate(0,0)" fill="rgb(255,255,255)" d="M 1504.08 740.974 C 1506.44 743.273 1507.34 756.449 1511.65 762.154 C 1520.12 773.388 1532.32 776.073 1544.86 778.906 C 1535.1 782.996 1525.31 787.034 1515.51 791.02 C 1510.96 793.251 1507.08 794.07 1502.2 795.339 C 1485.74 791.27 1471.83 780.709 1478.65 761.309 C 1482.68 749.858 1493.87 745.531 1504.08 740.974 z"/>
<path transform="translate(0,0)" fill="#0547dc" d="M 408.961 767.371 C 432.045 772.006 463.311 774.944 485.201 780.712 C 491.142 781.534 497.075 782.405 503.001 783.327 C 503.001 805.58 504.521 1011.58 502.339 1017.75 L 500.981 1017.97 C 470.232 1010.15 439.561 1002.01 408.974 993.576 L 408.776 961.606 C 361.65 965.051 314.351 989.179 293.323 1033.08 C 283.94 1058.07 285.087 1070.49 292.598 1095.82 C 313.936 1138.17 344.866 1156.76 384.608 1179.42 C 440.224 1211.72 499.185 1237.88 560.452 1257.44 C 663.174 1291.22 780.527 1307.99 846.765 1199.7 C 850.561 1193.49 855 1183.57 858.663 1178.31 C 863.187 1166.97 866.126 1148.85 871.37 1141.08 C 888.378 1120.54 922.913 1135.67 913.625 1168.28 C 874.959 1304.04 745.796 1356.6 614.857 1323.43 C 519.7 1299.32 432.364 1265.52 347.858 1214.88 C 325.466 1201.58 305.275 1188.28 286.471 1170.29 C 172.467 1055.98 270.889 921.373 409.043 912.796 C 409.081 907.729 408.712 902.674 408.418 897.615 C 320.83 904.847 217.334 942.929 192.656 1037.78 C 190.765 1045.05 189.592 1052.37 188.131 1059.72 C 187.681 1072.78 187.631 1081.27 188.099 1094.26 C 190.005 1099.88 191.31 1114.16 194.238 1122.82 C 209.237 1167.17 234.158 1189.86 268.181 1218.38 C 258.913 1222.57 241.784 1228.21 231.601 1232.02 C 230.575 1231.17 229.556 1230.31 228.544 1229.45 C 186.938 1193.82 157.89 1147.48 153.821 1091.88 C 149.964 1041.56 166.5 991.803 199.709 953.803 C 251.072 894.784 333.181 869.931 408.895 864.741 L 408.961 767.371 z"/>
<path transform="translate(0,0)" fill="rgb(8,28,105)" d="M 485.201 780.712 C 491.142 781.534 497.075 782.405 503.001 783.327 C 503.001 805.58 504.521 1011.58 502.339 1017.75 L 500.981 1017.97 C 502.279 940.905 499.496 861.929 501.156 785.019 C 495.823 784.028 490.339 783.149 485.145 781.626 L 485.201 780.712 z"/>
<path transform="translate(0,0)" fill="#0547dc" d="M 292.598 1095.82 C 281.437 1083.57 282.805 1046.72 291.525 1032.82 L 293.323 1033.08 C 283.94 1058.07 285.087 1070.49 292.598 1095.82 z"/>
<path transform="translate(0,0)" fill="#0547dc" d="M 871.37 1141.08 C 870.243 1150.02 867.455 1174.02 858.663 1178.31 C 863.187 1166.97 866.126 1148.85 871.37 1141.08 z"/>
<path transform="translate(0,0)" fill="#0547dc" d="M 188.099 1094.26 C 183.672 1087.41 183.397 1065.91 188.131 1059.72 C 187.681 1072.78 187.631 1081.27 188.099 1094.26 z"/>
<path transform="translate(0,0)" fill="rgb(255,255,255)" d="M 434.805 811.157 C 445.15 810.862 467.803 808.088 474.723 816.328 C 475.789 820.087 476.734 825.004 476.767 828.919 C 477.077 865.801 476.725 902.712 476.805 939.601 C 476.823 948.005 476.976 956.759 475.925 965.079 C 475.456 968.799 471.56 971.787 468.734 973.72 C 464.416 974.219 460.078 974.541 455.733 974.683 C 438.979 975.281 427.534 976.345 427.465 956.312 C 427.312 911.393 426.747 866.324 427.712 821.425 C 427.82 816.364 431.232 814.016 434.805 811.157 z"/>
<path transform="translate(0,0)" fill="#0547dc" d="M 323.454 1218.63 C 345.395 1230.18 367.74 1244.27 390.718 1256.31 C 342.764 1260.99 242.11 1288.23 204.014 1321.52 C 190.998 1333.78 182.227 1352.52 182.646 1370.7 C 184.66 1458.04 290.202 1446.07 347.073 1446.04 L 504.09 1445.93 C 504.551 1418.46 527.996 1425.85 549.082 1426.01 C 550.81 1422.85 552.708 1419.79 554.769 1416.83 C 562.588 1405.78 573.916 1397.3 587.435 1394.95 C 594.833 1393.18 687.45 1392.79 691.373 1395.17 C 693.141 1396.24 694.365 1397.89 695.558 1399.53 C 699.231 1404.93 698.134 1413.1 698.033 1419.95 C 711.916 1420.22 750.009 1418.02 760.343 1421.48 C 771.024 1425.05 768.409 1513.6 763.202 1523.26 C 754.529 1529.83 712.584 1527.13 698.023 1527.05 C 698.189 1531.63 698.744 1536.78 697.736 1541.27 C 696.988 1544.61 694.868 1548.68 691.681 1550.28 C 683.368 1554.45 591.77 1552.74 581.326 1549.27 C 565.443 1544 555.528 1532.76 548.629 1518.09 C 525.697 1517.75 504.291 1526.35 504.233 1495.97 L 344.582 1496.04 C 292.78 1496.04 236.587 1501.42 190.425 1473.33 C 162.936 1456.8 143.186 1429.98 135.562 1398.83 C 123.733 1350.04 144.273 1301.24 185.144 1272.73 C 205.92 1258.24 225.626 1250.61 249.04 1241.71 C 273.288 1232.33 298.151 1224.61 323.454 1218.63 z"/>
<path transform="translate(0,0)" fill="rgb(8,28,105)" d="M 587.435 1394.95 C 594.833 1393.18 687.45 1392.79 691.373 1395.17 C 693.141 1396.24 694.365 1397.89 695.558 1399.53 C 694.316 1399.03 690.655 1396.76 689.297 1395.96 L 626.773 1396.21 C 617.606 1396.23 595.373 1396.74 587.435 1394.95 z"/>
<path transform="translate(0,0)" fill="rgb(255,255,255)" d="M 697.958 1442.66 C 713.562 1442.74 729.166 1442.74 744.77 1442.65 C 745.013 1463.14 744.53 1483.86 744.768 1504.56 C 735.279 1505.42 708.727 1504.41 697.958 1504.31 L 697.958 1442.66 z"/>
<path transform="translate(0,0)" fill="#0547dc" d="M 972.653 1078.05 C 973.857 1067.22 980.063 1056.37 992.057 1055.57 C 1009.2 1054.42 1026.72 1054.86 1043.93 1054.85 L 1141.52 1054.82 L 1244.84 1054.85 C 1263.89 1054.86 1283.04 1054.37 1302.02 1055.75 C 1317.29 1056.86 1322.56 1070.72 1321.91 1084.24 C 1323.41 1100.23 1321.18 1119.28 1322.35 1135.7 C 1325.09 1174.27 1286.6 1167.26 1261.71 1167.11 C 1242.69 1149.6 1230.35 1126.31 1210.57 1109.13 C 1198.36 1097.73 1185.5 1098.07 1179.09 1081.61 C 1177.31 1077.03 1126.53 1079.06 1121.06 1079.57 C 1116.4 1082.94 1114.32 1084.6 1113.53 1090.67 C 1112.25 1100.46 1112.26 1126.37 1114.39 1134.98 C 1116.09 1136.29 1119.35 1138.93 1122.05 1139.64 C 1127.77 1141.14 1135.93 1139.03 1141.68 1141.93 C 1141.68 1141.93 1143.23 1147 1143.23 1147 C 1154.04 1155.55 1161.49 1157.23 1171.98 1167.1 L 1053.79 1167.21 C 1034.39 1167.22 1014.71 1167.8 995.377 1166.6 C 970.705 1165.07 971.972 1144.37 972.143 1126.08 L 955.162 1126.01 C 955.337 1135.54 956.711 1156.26 952.763 1164.04 C 948.736 1170.14 939.275 1177.06 931.765 1174.65 C 927.911 1169.89 930.238 1155.85 928.664 1145.23 C 926.04 1137.82 922.371 1130.39 915.99 1125.51 C 907.152 1118.75 895.676 1115.14 884.658 1116.29 C 849.587 1119.93 851.498 1164.18 842.596 1175.05 L 841.496 1174.74 C 840.161 1168.31 842.343 1158.22 841.918 1151.44 C 841.405 1143.67 840.212 1135.7 833.692 1130.83 C 803.235 1108.09 786.439 1132.16 774.184 1158.08 C 773.358 1159.83 771.765 1159.74 770.214 1159.79 C 763.943 1153.66 766.061 1129.8 766.129 1120.19 L 765.987 1093.09 C 765.89 1082.76 765.056 1069.25 773.211 1061.48 C 776.698 1058.22 781.11 1056.12 785.84 1055.47 C 794.588 1054.19 825.882 1054.94 836.567 1054.86 C 866.192 1054.98 895.901 1054.6 925.515 1054.98 C 954.999 1055.36 956.373 1070.1 954.756 1094.34 L 956.069 1095.73 C 960.224 1096.91 968.014 1096.56 972.636 1096.55 C 972.457 1090.07 972.275 1084.51 972.653 1078.05 z"/>
<path transform="translate(0,0)" fill="rgb(8,28,105)" d="M 972.653 1078.05 C 973.857 1067.22 980.063 1056.37 992.057 1055.57 C 1009.2 1054.42 1026.72 1054.86 1043.93 1054.85 L 1141.52 1054.82 L 1244.84 1054.85 C 1263.89 1054.86 1283.04 1054.37 1302.02 1055.75 C 1317.29 1056.86 1322.56 1070.72 1321.91 1084.24 C 1316.09 1071.89 1319.69 1057.75 1298.43 1057.35 C 1271.26 1056.85 1244.05 1056.79 1216.87 1056.78 L 1075.22 1056.85 C 1050.33 1056.86 1016.47 1056.35 991.045 1057.33 C 981.302 1057.7 976.521 1070.76 972.653 1078.05 z"/>
<path transform="translate(0,0)" fill="rgb(8,28,105)" d="M 766.129 1120.19 L 765.987 1093.09 C 765.89 1082.76 765.056 1069.25 773.211 1061.48 C 776.698 1058.22 781.11 1056.12 785.84 1055.47 C 794.588 1054.19 825.882 1054.94 836.567 1054.86 C 866.192 1054.98 895.901 1054.6 925.515 1054.98 C 954.999 1055.36 956.373 1070.1 954.756 1094.34 C 954.674 1094.11 954.585 1093.87 954.509 1093.63 C 950.651 1081.55 956.899 1067.48 942.969 1059.76 C 940.675 1058.49 938.398 1057.52 935.772 1057.26 C 921.938 1055.93 791.341 1055.93 783.243 1058.52 C 776.791 1060.59 773.517 1064.22 769.755 1069.61 C 768.048 1081.1 768.527 1117.58 767.229 1121.55 L 766.129 1120.19 z"/>
<path transform="translate(0,0)" fill="#0547dc" d="M 928.664 1145.23 C 940.649 1156.04 923.687 1182.66 946.861 1168.2 C 949.093 1166.81 949.039 1164.79 952.763 1164.04 C 948.736 1170.14 939.275 1177.06 931.765 1174.65 C 927.911 1169.89 930.238 1155.85 928.664 1145.23 z"/>
<path transform="translate(0,0)" fill="rgb(6,45,146)" d="M 1114.39 1134.98 L 1113.63 1135.06 C 1108.81 1128.89 1110.17 1095.07 1112.61 1086.59 C 1113.83 1082.33 1116.41 1080.54 1120.07 1078.59 L 1121.06 1079.57 C 1116.4 1082.94 1114.32 1084.6 1113.53 1090.67 C 1112.25 1100.46 1112.26 1126.37 1114.39 1134.98 z"/>
<path transform="translate(0,0)" fill="rgb(255,255,255)" d="M 812.465 1079.28 C 828.504 1078.39 847.232 1079.35 863.566 1078.95 C 876.73 1079.11 890.008 1078.47 903.148 1079.19 C 911.624 1079.65 916.574 1082.38 914.735 1091.4 C 912.816 1094.32 912.244 1094.34 908.936 1095.91 L 847.011 1096.26 C 837.939 1096.29 813.772 1098.13 807.572 1092.61 C 805.038 1086.33 807.388 1083.1 812.465 1079.28 z"/>
<path transform="translate(0,0)" fill="rgb(255,255,255)" d="M 1249.28 1079.5 C 1253.92 1077.86 1259.03 1080.21 1260.79 1084.8 C 1262.56 1089.4 1260.34 1094.56 1255.79 1096.44 C 1252.74 1097.7 1249.25 1097.21 1246.67 1095.16 C 1244.09 1093.11 1242.82 1089.82 1243.37 1086.56 C 1243.91 1083.31 1246.17 1080.61 1249.28 1079.5 z"/>
<path transform="translate(0,0)" fill="rgb(255,255,255)" d="M 1068.39 1079.69 C 1072.99 1077.75 1078.29 1079.9 1080.24 1084.49 C 1082.18 1089.09 1080.04 1094.4 1075.45 1096.35 C 1070.84 1098.31 1065.52 1096.16 1063.57 1091.55 C 1061.62 1086.95 1063.78 1081.63 1068.39 1079.69 z"/>
<path transform="translate(0,0)" fill="rgb(255,255,255)" d="M 1068 1123.73 C 1072.53 1121.67 1077.88 1123.68 1079.94 1128.21 C 1082.01 1132.74 1080.01 1138.09 1075.49 1140.16 C 1070.95 1142.24 1065.59 1140.24 1063.52 1135.7 C 1061.45 1131.16 1063.45 1125.8 1068 1123.73 z"/>
<path transform="translate(0,0)" fill="rgb(255,255,255)" d="M 1010.62 1079.68 C 1015.17 1078.07 1020.18 1080.32 1021.99 1084.8 C 1023.8 1089.28 1021.76 1094.38 1017.36 1096.38 C 1014.35 1097.75 1010.82 1097.35 1008.18 1095.35 C 1005.55 1093.35 1004.22 1090.06 1004.73 1086.79 C 1005.24 1083.52 1007.5 1080.79 1010.62 1079.68 z"/>
<path transform="translate(0,0)" fill="rgb(255,255,255)" d="M 1009.88 1123.66 C 1012.88 1122.34 1016.36 1122.75 1018.97 1124.74 C 1021.58 1126.73 1022.9 1129.98 1022.41 1133.22 C 1021.93 1136.47 1019.72 1139.19 1016.65 1140.34 C 1012.09 1142.03 1007 1139.8 1005.17 1135.29 C 1003.33 1130.78 1005.42 1125.63 1009.88 1123.66 z"/>
<path transform="translate(0,0)" fill="#0547dc" d="M 922.427 1196.32 C 1012.84 1197.62 1103.94 1195.61 1194.45 1196.85 C 1203.78 1207.69 1225.49 1230.72 1237.25 1238 L 1213.42 1238.08 L 900.153 1238.14 C 908.082 1226.39 916.359 1209.17 922.427 1196.32 z"/>
<path transform="translate(0,0)" fill="#0547dc" d="M 371.416 1274.22 C 378.434 1273.18 403.528 1283.28 412.071 1285.38 C 451.199 1294.96 489.603 1296.25 526.592 1313.82 C 538.074 1319.27 565.602 1323.95 574.462 1329.63 C 567.229 1332.03 533.437 1333.33 525.243 1333.56 C 446.757 1332.25 390.248 1319.78 318.811 1286.7 C 333.534 1282.09 355.991 1277.47 371.416 1274.22 z"/>
<path transform="translate(0,0)" fill="#0547dc" d="M 1554.36 471.93 C 1558.71 471.946 1564.16 472.074 1568.45 471.668 C 1582.95 470.293 1606.95 471.18 1607.67 491.412 C 1608.71 520.428 1607.64 551.357 1607.99 580.572 C 1608.09 588.213 1608.57 599.165 1607.37 606.66 C 1604.7 608.984 1601.12 609.11 1597.45 609.761 L 1580.44 612.851 C 1573.8 604.041 1563.84 591.126 1561.14 580.524 C 1558.68 570.902 1562.96 560.144 1564.45 550.496 C 1568.66 523.075 1565.03 497.242 1554.36 471.93 z"/>
<path transform="translate(0,0)" fill="#0547dc" d="M 811.251 1136.14 C 820.666 1136.39 830.537 1142.84 829.118 1153.05 C 825.361 1180.08 800.26 1209.35 782.379 1228.45 C 751.605 1261.31 737.643 1267.49 692.66 1268.29 C 683.841 1268.14 677.724 1267.86 668.851 1266.95 C 712.87 1249.1 755.72 1214.67 782.851 1175.44 C 793.159 1160.53 793.259 1142.69 811.251 1136.14 z"/>
<path transform="translate(0,0)" fill="#0547dc" d="M 1445.86 360.301 C 1436.38 352.914 1444.35 335.501 1453.24 335.001 C 1475.22 333.763 1497.88 334.327 1519.95 334.347 L 1573.86 334.397 C 1585.53 334.418 1607.34 331.456 1614.17 340.961 C 1617.9 346.157 1619.06 352.988 1614.99 358.251 C 1607.78 368.549 1597.97 366.523 1586.41 366.441 C 1543.12 366.132 1499.78 366.713 1456.51 366.017 C 1451.82 365.936 1448.77 363.852 1445.86 360.301 z"/>
<path transform="translate(0,0)" fill="#0547dc" d="M 1445.86 360.301 C 1449.36 361.463 1450.54 363.288 1456.03 363.395 C 1505.96 364.368 1556.22 364.375 1606.13 363.296 C 1608.18 363.251 1610.84 358.539 1614.99 358.251 C 1607.78 368.549 1597.97 366.523 1586.41 366.441 C 1543.12 366.132 1499.78 366.713 1456.51 366.017 C 1451.82 365.936 1448.77 363.852 1445.86 360.301 z"/>
<path transform="translate(0,0)" fill="#0547dc" d="M 1459.88 280.478 L 1549.38 280.461 C 1561.93 280.43 1599.62 278.603 1609.82 282.92 C 1619.83 287.154 1621.67 309.795 1602.25 312.093 L 1504.23 312.288 C 1493.86 312.286 1454.58 314.119 1447.53 308.656 C 1444.28 306.127 1442.18 302.388 1441.73 298.291 C 1440.33 286.098 1449.24 281.17 1459.88 280.478 z"/>
<path transform="translate(0,0)" fill="#0547dc" d="M 1457.46 388.215 L 1552.16 388.136 C 1569.42 388.082 1587.92 387.447 1605.12 388.896 C 1612.06 389.48 1617.33 397.338 1617.09 404.287 C 1616.98 408.358 1615.25 412.216 1612.29 415.01 C 1604.75 422.108 1583.45 420.024 1572.95 420.013 L 1513.76 419.942 C 1498.44 407.305 1477.18 395.878 1457.44 392.783 C 1454.67 392.294 1454.04 392.382 1451.91 390.476 C 1453.38 388.349 1453.98 388.926 1457.46 388.215 z"/>
<path transform="translate(0,0)" fill="rgb(6,45,146)" d="M 1457.44 392.783 C 1454.67 392.294 1454.04 392.382 1451.91 390.476 C 1453.38 388.349 1453.98 388.926 1457.46 388.215 L 1466.15 389.593 C 1461.96 390.186 1460.56 389.942 1457.44 392.783 z"/>
<path transform="translate(0,0)" fill="#0547dc" d="M 1442.05 811.866 C 1446.91 817.825 1456.08 827.126 1462.26 831.67 C 1463.61 867.983 1474.33 887.287 1507.62 902.912 C 1508.88 911.743 1511.11 917.979 1514.59 926.094 C 1503.71 925.902 1488.56 925.703 1477.88 926.308 C 1436.76 928.632 1441.9 907.098 1441.95 875.173 L 1442.05 811.866 z"/>
<path transform="translate(0,0)" fill="#0547dc" d="M 1441.97 677.516 C 1448.04 681.684 1460.7 700.472 1465.73 707.547 C 1460.85 710.183 1457.9 712.324 1453.4 715.542 C 1449.06 719.281 1445.68 723.531 1441.97 727.89 C 1442.08 711.084 1441.74 694.378 1441.97 677.516 z"/>
</svg>